PathFileType	4	(X/Y/Z)	s05c0101.trc
DataRate	CameraRate	NumFrames	NumMarkers	Units	OrigDataRate	OrigDataStartFrame	OrigNumFrames
200	200	6	50	mm	200	750	2000
Frame#	Time	racr			lacr			c7			jug			rlel			rdr			llel			ldr			s2			lic			ric			lasi			rasi			rpsi			lpsi			rgt			lgt			rth1			rth2			rth3			rth4			rlfc			rmfc			rsh1			rsh2			rsh3			rsh4			rlmal			rmmal			rcal			rtoe			rmt5			lth1			lth2			lth4			lth3			llfc			lmfc			lsh1			lsh2			lsh3			lsh4			llmal			lmmal			lcal			ltoe			lmt5			SBIKE			LBIKE			RBIKE			
		X1	Y1	Z1	X2	Y2	Z2	X3	Y3	Z3	X4	Y4	Z4	X5	Y5	Z5	X6	Y6	Z6	X7	Y7	Z7	X8	Y8	Z8	X9	Y9	Z9	X10	Y10	Z10	X11	Y11	Z11	X12	Y12	Z12	X13	Y13	Z13	X14	Y14	Z14	X15	Y15	Z15	X16	Y16	Z16	X17	Y17	Z17	X18	Y18	Z18	X19	Y19	Z19	X20	Y20	Z20	X21	Y21	Z21	X22	Y22	Z22	X23	Y23	Z23	X24	Y24	Z24	X25	Y25	Z25	X26	Y26	Z26	X27	Y27	Z27	X28	Y28	Z28	X29	Y29	Z29	X30	Y30	Z30	X31	Y31	Z31	X32	Y32	Z32	X33	Y33	Z33	X34	Y34	Z34	X35	Y35	Z35	X36	Y36	Z36	X37	Y37	Z37	X38	Y38	Z38	X39	Y39	Z39	X40	Y40	Z40	X41	Y41	Z41	X42	Y42	Z42	X43	Y43	Z43	X44	Y44	Z44	X45	Y45	Z45	X46	Y46	Z46	X47	Y47	Z47	X48	Y48	Z48	X49	Y49	Z49	X50	Y50	Z50	
750	3.7500	448.809283	1317.675843	-154.530268	443.624924	1337.646515	-406.733189	410.273612	1402.428864	-281.676790	386.733599	1240.118560	-287.445606	496.609238	1076.347317	-26.451222	692.204305	922.332006	-92.412657	446.104200	1077.925514	-546.740207	670.798114	936.579500	-478.640426	-124.774275	1167.466019	-257.559298	8.353409	1198.124526	-409.326389	28.351281	1184.847223	-124.527336	61.851034	1145.665663	-383.286474	68.770953	1129.869430	-158.585868	-89.651980	1217.877671	-212.647463	-94.573280	1224.512248	-300.484809	-1.796395	1054.457458	-102.803427	-52.409933	1087.889469	-436.945599	94.995580	989.737125	-92.284229	177.840263	957.443892	-94.222274	231.225748	887.298448	-98.931829	197.810156	985.594885	-107.898405	332.609800	783.250718	-125.940015	316.915665	780.877235	-236.998800	244.101978	722.774460	-96.733371	195.942864	649.624034	-109.075457	120.225268	607.588189	-110.695598	216.424270	630.638985	-136.068681	25.357808	517.365666	-115.898666	48.719885	524.434486	-199.365931	-48.929044	539.123346	-162.755314	149.520371	318.822227	-156.573212	60.762186	373.092404	-92.630183	49.088799	980.288310	-461.242746	127.402309	944.964684	-462.519975	152.281039	971.757236	-451.304391	178.316623	870.418340	-463.424166	278.553428	760.610835	-435.609991	270.791900	745.685341	-329.142136	245.944304	634.723806	-459.688810	259.156874	549.079807	-446.992954	226.910454	466.678848	-444.274051	290.121330	548.650911	-423.676125	219.132528	344.285764	-437.152834	246.641091	374.566737	-360.815696	162.648528	300.201516	-392.928345	456.978632	303.334476	-407.872516	349.531441	267.350112	-467.570910	-264.106754	895.389735	-287.047639	-53.346914	78.821749	-475.038121	-53.362470	79.077479	-77.389726	
751	3.7550	448.280709	1318.265411	-153.635308	444.614301	1338.100121	-405.785775	410.688047	1403.085794	-280.773421	387.057636	1240.715707	-286.751488	496.650130	1076.884426	-26.259631	692.382640	922.542898	-92.532398	448.500614	1079.484812	-546.984560	671.536474	936.251162	-478.249610	-122.621316	1166.824388	-263.280062	10.531738	1197.391351	-411.889722	27.223965	1186.471354	-126.878442	62.774504	1143.912771	-384.251548	68.448613	1131.441714	-160.208091	-89.827384	1218.771953	-215.804529	-93.669282	1224.390159	-304.439767	-1.537805	1056.951751	-104.394344	-50.999102	1086.458345	-438.929997	96.369477	993.869109	-92.448504	179.729271	963.474654	-94.781935	234.664850	894.479442	-98.889433	199.083688	991.913812	-108.648310	337.723984	791.956771	-125.738394	322.103105	789.671731	-235.460769	248.620266	731.769839	-96.711727	200.055707	658.716440	-109.322679	124.626588	617.105031	-110.922799	221.050041	639.805726	-135.867605	29.549411	527.399899	-116.000168	52.856618	534.366530	-199.534322	-44.336794	549.561585	-162.442117	152.701567	328.347759	-156.690121	64.322541	382.836705	-92.869069	48.503636	977.007108	-462.902815	125.994430	939.722417	-463.761978	151.590821	966.035659	-452.838945	174.920617	863.884229	-464.225282	272.893467	752.283726	-435.979865	264.630866	737.451532	-329.892111	241.048396	626.204927	-460.401430	254.980496	540.874367	-447.698590	223.565707	457.955888	-445.136207	285.799516	540.639244	-424.130793	217.084826	336.410327	-438.023507	245.228186	367.807213	-361.491648	160.245724	292.909118	-394.093945	454.654463	292.478126	-407.277168	347.145644	257.937017	-467.627138	-264.068214	895.430398	-287.051551	-53.325788	78.834563	-475.080624	-53.354064	79.110003	-77.415584	
752	3.7600	447.912025	1319.002704	-152.698362	445.658722	1338.789769	-404.993123	411.059536	1403.952950	-279.767542	387.409989	1241.442050	-286.164467	496.912431	1077.692431	-26.156993	692.666502	922.709752	-92.498472	451.042071	1081.113881	-547.314008	672.435600	935.918307	-477.768002	-123.591408	1168.668446	-263.345378	12.764697	1196.853951	-414.384630	26.033114	1188.327921	-129.208104	64.789925	1142.972331	-386.340068	68.167557	1133.274262	-161.809224	-89.439767	1218.152030	-221.516866	-92.888541	1224.240417	-308.178257	-1.317368	1059.797962	-105.955980	-49.656297	1085.174319	-440.843618	97.517250	998.437644	-92.983662	181.500727	969.698380	-95.379370	237.864518	901.880923	-99.001050	200.205444	998.431432	-109.355817	342.861090	801.103210	-125.691735	327.252914	797.847416	-234.858512	253.496644	740.959785	-96.660915	204.693970	668.041192	-109.197906	129.094231	626.727091	-111.100204	225.779345	648.839330	-135.627764	33.589097	537.307132	-116.453404	57.372985	543.944881	-199.591265	-40.330546	559.659041	-162.922593	156.546171	337.756217	-156.845541	68.234780	392.617053	-93.132747	47.720445	973.902692	-464.227840	124.215223	934.685226	-465.054581	150.513317	960.375771	-454.460650	171.204360	857.636207	-465.085471	266.678201	744.146626	-436.505586	258.189681	729.584951	-330.613467	235.865183	618.080431	-461.489261	250.370763	532.870989	-448.512151	219.685906	449.736063	-446.102464	281.588499	533.268700	-425.603179	214.525347	328.844017	-439.240896	243.248778	361.414515	-362.083986	157.297951	285.881167	-395.462784	451.804688	281.817394	-406.654122	344.292313	248.501439	-467.730570	-263.880953	895.475184	-287.168626	-53.275562	78.835996	-475.099596	-53.304124	79.104185	-77.455036	
753	3.7650	447.657212	1319.822015	-151.752393	446.716009	1339.634994	-404.296396	411.439554	1404.814569	-279.077886	387.653595	1242.352987	-285.696552	497.341973	1078.453124	-26.413166	692.961054	922.468705	-92.953858	453.651719	1082.743873	-547.658000	673.346435	935.598364	-477.450017	-122.763223	1169.290713	-266.818631	15.042370	1196.325155	-416.672924	24.830955	1190.298402	-131.525931	66.670559	1142.544195	-388.158342	67.887630	1135.235594	-163.360059	-89.616659	1219.175730	-225.660369	-91.930884	1224.449049	-312.221204	-0.879205	1062.921416	-107.455296	-48.273939	1084.019035	-442.649748	98.548187	1003.262660	-94.087619	183.146893	976.197070	-96.017043	240.844152	909.517728	-99.064527	201.338549	1005.199007	-110.112456	347.646802	810.499787	-125.442066	332.494533	806.567197	-234.652343	258.316875	750.371038	-96.529920	209.915853	677.538283	-108.802876	133.749077	636.357541	-111.179375	231.050856	658.261115	-135.070399	38.266874	546.861801	-116.636516	62.094275	553.585250	-199.723363	-35.612047	569.114880	-163.318620	160.912514	347.242482	-157.100437	72.700878	402.078305	-93.404270	46.749256	971.051742	-465.468110	122.208685	929.841932	-466.343105	149.141205	954.975602	-456.595533	167.139354	851.495006	-466.020568	260.161757	736.312187	-437.138138	251.190144	721.991288	-331.362698	230.160326	610.274062	-462.470338	245.321254	525.263825	-449.499411	215.363188	441.865379	-447.223316	276.453977	526.051137	-426.624540	211.561085	321.446214	-440.307928	240.732998	355.390065	-362.596217	153.886633	279.232122	-396.967777	448.430004	271.307377	-405.968933	340.912113	239.442563	-467.896325	-263.785126	895.526661	-287.343088	-53.227895	78.866227	-475.122007	-53.299083	79.151498	-77.476852	
754	3.7700	447.441591	1320.737983	-150.838554	447.495681	1340.329986	-403.576529	411.794542	1405.846287	-278.303018	387.914609	1243.188057	-285.253873	498.153052	1079.523019	-26.518283	693.119748	922.508844	-93.313704	456.252706	1084.550680	-548.027459	674.313785	935.357266	-477.198683	-122.107298	1169.955627	-270.358770	17.386615	1196.089611	-419.058850	23.646506	1192.420226	-133.845657	68.242633	1142.288938	-389.459935	67.636537	1137.256760	-164.899148	-89.715378	1220.347524	-229.842335	-90.795856	1224.713136	-316.180716	-0.442221	1066.509858	-108.841820	-46.940226	1083.131874	-444.370480	99.384568	1008.187620	-95.506890	184.529874	982.624923	-96.940189	243.604580	917.313384	-99.104688	202.255818	1012.057392	-110.940573	352.536009	819.976475	-125.209840	337.631543	815.555443	-234.448472	262.970566	759.875241	-96.409599	214.698772	687.129585	-108.611835	138.417121	645.878072	-111.232891	235.920607	667.465575	-134.728176	43.100143	556.069362	-116.789409	67.431410	562.871611	-199.810389	-30.853201	578.578565	-163.459701	165.902812	356.539381	-157.242119	77.633030	411.414290	-93.667576	45.622514	968.503223	-466.627573	119.914928	925.260557	-467.665541	147.528684	949.736782	-458.157885	162.796368	845.809384	-466.899128	253.424559	728.837114	-437.847110	244.160982	714.767452	-332.166133	224.092788	603.056549	-463.613619	239.814537	518.137302	-450.613534	210.566124	434.391606	-448.472900	270.991042	519.179276	-427.741824	208.058649	314.365661	-441.580108	237.710961	349.735378	-363.031850	149.934044	272.987535	-398.605617	444.448537	261.138556	-405.328299	337.048918	230.532028	-468.041067	-263.795979	895.595036	-287.341830	-53.207279	78.888509	-475.146268	-53.258817	79.186045	-77.503896	
755	3.7750	447.185694	1321.843121	-150.089300	449.458389	1341.585524	-404.067005	412.128346	1406.776160	-277.894337	388.161157	1244.123476	-284.800540	499.144522	1080.763654	-26.616322	693.554783	922.809104	-93.694630	458.987895	1086.463662	-548.691641	675.231081	935.120220	-477.086543	-121.517034	1170.754844	-273.826177	19.757714	1195.912696	-421.391457	22.443365	1194.596338	-136.067322	69.795118	1142.291244	-390.439320	67.264820	1139.412469	-166.416224	-90.002303	1221.648683	-233.643476	-89.741438	1225.197336	-320.108201	-0.369961	1070.378179	-110.099575	-45.605821	1082.420336	-445.963096	100.156064	1013.310900	-97.131582	185.881606	989.417181	-97.634224	246.202179	925.172203	-99.155704	203.119023	1019.016317	-111.923714	356.954119	829.723652	-124.953891	342.608284	824.586413	-234.259841	267.695177	769.423968	-96.291905	218.923196	696.533275	-108.697276	143.274430	655.251692	-111.190587	240.899827	677.031307	-134.163628	48.240541	564.983623	-116.979715	71.999761	571.768959	-199.754218	-25.644944	587.361359	-163.604445	171.452837	365.732876	-157.427559	83.112186	420.347743	-93.870860	44.418683	966.205534	-467.849567	117.565250	920.998922	-468.949514	145.786725	944.748092	-459.543086	158.316873	840.476041	-467.834544	246.422339	721.796745	-438.570291	236.075035	708.324271	-332.191726	217.802020	596.218795	-465.195803	234.100289	511.496242	-451.849652	205.331813	427.425798	-449.820784	265.105310	512.574613	-428.905674	204.151191	307.532072	-442.818142	234.212808	344.451906	-363.394454	145.584534	267.258754	-399.857956	439.954729	251.104832	-404.960404	332.435957	221.853098	-468.234392	-263.649953	895.680467	-287.721500	-53.185543	78.912990	-475.153362	-53.241227	79.240703	-77.520213	
